<svg width="842" height="839" viewBox="0 0 842 839" fill="none" xmlns="http://www.w3.org/2000/svg">
<path fill-rule="evenodd" clip-rule="evenodd" d="M96.1869 327.649C125.457 340.724 148.269 372.177 159.802 405.461C166.04 423.464 156.502 443.116 138.499 449.355C120.495 455.593 100.843 446.055 94.6046 428.051C90.9579 417.527 85.8931 408.551 80.5694 401.834C77.5045 397.967 74.6928 395.264 72.4048 393.449C72.1985 394.035 71.9864 394.678 71.7708 395.383C69.1724 403.88 68.2946 420.786 71.8971 441.861C75.4016 462.364 82.3764 482.204 91.2282 496.157C103.739 515.878 124.293 530.734 141.456 538.986C143.656 540.043 145.705 540.945 147.569 541.701C161.747 537.156 177.795 542.212 186.604 555.143C188.832 558.414 193.437 566.039 193.499 576.648C193.58 590.22 186.316 601.224 176.856 607.318C169.366 612.144 161.964 613.088 158.446 613.361C154.291 613.683 150.509 613.393 147.584 613.016C136.562 611.592 123.682 607 111.561 601.173C86.7738 589.257 54.4336 566.962 32.9642 533.121C17.9779 509.498 8.48342 480.398 3.88354 453.487C-0.618388 427.149 -1.23575 398.17 5.7872 375.205C11.557 356.337 22.2602 338.273 40.8471 328.377C60.2301 318.057 80.5002 320.641 96.1869 327.649ZM75.0361 388.035C75.0369 388.036 75.0152 388.062 74.9686 388.11C75.0121 388.057 75.0354 388.033 75.0361 388.035Z" fill="#C2C2C2"/>
<path fill-rule="evenodd" clip-rule="evenodd" d="M96.2243 327.654C125.539 340.746 148.398 372.247 159.956 405.596C166.196 423.6 156.66 443.252 138.657 449.492C120.654 455.732 101.001 446.196 94.7611 428.192C91.1026 417.637 86.021 408.633 80.6778 401.893C77.557 397.956 74.696 395.22 72.3776 393.395C72.1577 394.014 71.9309 394.698 71.7003 395.452C69.1253 403.87 68.3185 420.525 72.0004 441.621C75.5682 462.062 82.6047 482.304 91.5841 497.109C101.465 513.4 96.2687 534.617 79.9772 544.498C63.6858 554.379 42.4687 549.183 32.5875 532.891C18.1906 509.155 8.71582 480.343 4.02795 453.484C-0.545818 427.279 -1.35273 398.385 5.71817 375.269C11.5 356.367 22.2213 338.285 40.8273 328.382C60.2274 318.056 80.5166 320.639 96.2243 327.654ZM74.9901 388.059C74.9909 388.06 74.9693 388.086 74.923 388.133C74.9662 388.081 74.9894 388.057 74.9901 388.059Z" fill="#D9D9D9"/>
<path d="M624.8 742.004C568.742 790.487 493.594 808 410.998 808C330.067 808 256.287 789.393 200.61 741.192C247.709 813.035 324.617 839 411.498 839C499.879 839 577.941 814.72 624.8 742.004Z" fill="#C7C7C7"/>
<path d="M724.998 451.845C724.998 730.8 584.415 808.002 410.998 808.002C237.581 808.002 96.998 722.566 96.998 443.611C96.998 298.36 237.581 282.002 410.998 282.002C584.415 282.002 724.998 306.595 724.998 451.845Z" fill="#B7B7B7"/>
<path d="M701.998 511.356C701.998 730.384 571.713 791 410.998 791C250.283 791 119.998 723.918 119.998 504.891C119.998 390.844 250.283 378 410.998 378C571.713 378 701.998 397.31 701.998 511.356Z" fill="#26B0FD"/>
<path d="M619 430.591C619 502.186 521.398 522 401 522C280.602 522 183 500.072 183 428.477C183 391.198 280.602 387 401 387C521.398 387 619 393.312 619 430.591Z" fill="#009DF4"/>
<path d="M304.48 525.352C207.682 506.29 119.529 460.697 114.254 381.091C113.982 376.991 113.929 372.971 114.086 369.03C156.555 292.291 273.448 282 410.998 282C550.043 282 667.979 297.81 709.268 378.946C708.938 381.875 708.495 384.848 707.936 387.864C699.312 434.376 671.132 467.293 632.467 490.084L641.708 472.907C656.606 458.75 667.13 441.538 671.624 420.728C690.906 331.455 553.548 293 411.499 293C272.511 293 142.116 332.895 148.5 415.605C152.903 472.645 222.839 506.598 302.704 522.275L304.48 525.352Z" fill="#D9D9D9"/>
<path d="M543.737 523.214C545.479 522.827 547.216 522.429 548.947 522.021L546.938 518.771C546.692 518.832 546.445 518.892 546.198 518.952L543.737 523.214Z" fill="#D9D9D9"/>
<path d="M497.693 194.736C541.495 186.151 657.278 213.099 822.822 225.238L628.572 300.279L643.223 316.763C611.154 330.624 591.518 336.259 552.372 340.999L513.686 344.6C460.176 352.111 424.44 431.05 456.158 483.204C504.788 563.168 633.62 538.926 628.45 421.093C663.179 466.446 676.693 491.741 680.253 536.4C639.504 584.641 564.543 625.228 451.918 587.398C376.45 562.048 326.594 491.583 323.049 416.309C260.734 442.85 240.654 476.539 210.155 543.357C208.701 471.135 203.161 432.097 113.206 387.103C135.001 352.069 143.008 330.948 138.813 286.786C166.819 253.179 181.664 233.735 195.205 189.975C245.294 167.89 270.42 152.605 296.078 106.536C340.319 93.3447 354.405 77.9251 357.866 34.2024C423.897 73.8713 457.763 102.47 497.693 194.736Z" fill="#6B8AD8"/>
<path fill-rule="evenodd" clip-rule="evenodd" d="M497.693 194.736C457.762 102.469 423.896 73.8711 357.865 34.2022C354.404 77.9249 340.318 93.3445 296.078 106.536C353.306 114.037 384.169 147.982 437.638 206.791L437.66 206.815C438.614 207.864 439.575 208.921 440.544 209.986C458.192 202.702 477.355 197.693 497.693 194.736ZM371.091 260.542C287.261 210.064 244.024 187.459 195.204 189.975C181.664 233.734 166.819 253.178 138.813 286.786C215.502 279.712 258.809 286.149 339.928 315.733C347.846 294.312 358.361 276 371.091 260.542ZM326.539 370.107C324.488 384.504 323.304 399.89 323.048 416.308C260.734 442.85 240.654 476.539 210.154 543.357C208.701 471.135 203.161 432.097 113.205 387.103C159.785 353.573 207.953 346.951 326.539 370.107Z" fill="url(#paint0_linear_10_73)"/>
<path fill-rule="evenodd" clip-rule="evenodd" d="M822.822 225.238L628.572 300.279L643.223 316.763C611.154 330.624 591.518 336.259 552.372 340.999L513.685 344.6C460.175 352.111 424.439 431.05 456.158 483.204C504.788 563.168 633.62 538.926 628.45 421.093C628.45 421.093 671.012 492.211 632.546 523.977C569.627 575.936 486.254 565.893 433.223 527.089C384.027 491.091 341.821 411.787 404.779 316.251C467.738 220.716 634.096 233.316 822.822 225.238Z" fill="url(#paint1_radial_10_73)"/>
<path fill-rule="evenodd" clip-rule="evenodd" d="M616.998 478.5C633.838 485.915 655.163 461 646.998 444.5C638.317 426.955 619.976 409.525 593.745 394.358C659.852 411.97 701.998 446.149 701.998 510.356C701.998 729.384 569.027 790 404.998 790C240.97 790 107.998 722.918 107.998 503.891C107.998 471.361 118.817 447.065 138.088 428.952C151.105 515.221 246.325 529.434 352.498 509C368.318 533 463.447 532.305 465.998 496C466.942 495.932 467.555 496.311 468.177 496.696C468.78 497.069 469.391 497.447 470.318 497.423C486.648 534.5 583.385 525.493 608.498 480C609.941 479.519 611.312 479.42 612.648 479.324C614.125 479.217 615.559 479.114 616.998 478.5Z" fill="#26B0FD"/>
<path d="M324.898 502.915C315.113 517.484 327.052 522.199 347.446 528.158" stroke="#C6E5F6" stroke-width="16" stroke-linecap="round"/>
<path d="M523.523 510.692C526.111 492.541 512.74 489.443 490.056 487.14" stroke="#C6E5F6" stroke-width="16" stroke-linecap="round"/>
<path d="M496.796 515.082C505.237 508.176 496.709 505.254 481.174 501.473" stroke="#C6E5F6" stroke-width="7" stroke-linecap="round"/>
<path d="M301.774 517.279C294.244 524.675 303.11 527.064 319.065 529.881" stroke="#C6E5F6" stroke-width="7" stroke-linecap="round"/>
<path d="M156.096 441.604C131.43 421.727 115.683 400.577 114.245 380.092C113.922 375.5 114.27 370.784 115.247 365.982C103.433 386.36 96.998 411.535 96.998 442.611C96.998 721.566 237.581 807.002 410.998 807.002C584.415 807.002 724.998 729.8 724.998 450.845C724.998 405.729 711.435 372.253 687.537 347.54C689.605 359.714 675.513 396.449 673 410.5C671 437.5 657.58 453.118 657.58 453.118C657.58 453.118 647.756 466.161 641.707 471.909C635.659 477.657 602.998 645.5 586.998 629.5C568.634 611.135 592.855 511.896 549.448 521.834C546.826 522.434 545.054 523.148 542.838 523.771C540.623 524.394 534.185 569.763 522.498 559.002C518.924 555.711 519.419 551.933 516.277 548.227C499.721 528.699 507.667 653.947 483.498 645.5C467.445 639.89 474.524 578.489 461.726 567.292C422.797 533.229 426.498 769 395.498 769C364.498 769 369.054 534.301 302.704 521.277C236.354 508.253 176.857 482.615 156.096 441.604Z" fill="#D9D9D9"/>
<defs>
<linearGradient id="paint0_linear_10_73" x1="429.228" y1="30.9848" x2="215.174" y2="560.253" gradientUnits="userSpaceOnUse">
<stop stop-color="#4864AC"/>
<stop offset="1" stop-color="#1D2946"/>
</linearGradient>
<radialGradient id="paint1_radial_10_73" cx="0" cy="0" r="1" gradientUnits="userSpaceOnUse" gradientTransform="translate(651.813 377.436) rotate(130.338) scale(286.372 282.357)">
<stop stop-color="#4864AC"/>
<stop offset="1" stop-color="#1D2946"/>
</radialGradient>
</defs>
</svg>
